<svg width="20" height="20" viewBox="0 0 20 20" fill="none" xmlns="http://www.w3.org/2000/svg">
<mask id="mask0_1040_21767" style="mask-type:luminance" maskUnits="userSpaceOnUse" x="0" y="0" width="20" height="20">
<path d="M20 0H0V20H20V0Z" fill="white"/>
</mask>
<g mask="url(#mask0_1040_21767)">
<path d="M13.6499 18.9577H2.69994C1.90827 18.9577 1.17494 18.5911 0.699942 17.9494C0.216609 17.2994 0.074949 16.4827 0.316615 15.7077L3.82494 4.43267C4.14161 3.38267 5.10829 2.66602 6.20829 2.66602H16.4582C17.4666 2.66602 18.3749 3.26609 18.7582 4.19942C18.9666 4.68276 19.0082 5.23277 18.8832 5.77443L16.0749 17.0493C15.8082 18.1743 14.8082 18.9577 13.6499 18.9577ZM6.21661 3.92436C5.67494 3.92436 5.18327 4.28274 5.02494 4.80774L1.51662 16.0827C1.39995 16.4744 1.46661 16.8827 1.71661 17.2161C1.94994 17.5327 2.31662 17.7161 2.70828 17.7161H13.6582C14.2333 17.7161 14.7332 17.3244 14.8666 16.7661L17.6749 5.48268C17.7416 5.20768 17.7249 4.93272 17.6166 4.69106C17.4167 4.21606 16.9749 3.91602 16.4666 3.91602H6.21661V3.92436Z" fill="#6A7282"/>
<path d="M17.3167 18.9591H13.3333C12.9917 18.9591 12.7083 18.6758 12.7083 18.3341C12.7083 17.9924 12.9917 17.7091 13.3333 17.7091H17.3167C17.6583 17.7091 17.975 17.5675 18.2083 17.3175C18.4417 17.0675 18.5583 16.7342 18.5333 16.3925L17.7083 5.0425C17.6833 4.70083 17.9417 4.40079 18.2833 4.37579C18.625 4.35912 18.925 4.60908 18.95 4.95075L19.775 16.3008C19.825 16.9842 19.5833 17.6675 19.1167 18.1675C18.6583 18.6758 18 18.9591 17.3167 18.9591Z" fill="#6A7282"/>
<path d="M8.06647 5.94223C8.01647 5.94223 7.96647 5.93388 7.91647 5.92555C7.58314 5.84222 7.37482 5.50886 7.45816 5.16719L8.3248 1.56723C8.40817 1.2339 8.7415 1.02552 9.08317 1.10886C9.4165 1.19219 9.62483 1.52556 9.5415 1.86722L8.67483 5.46727C8.60817 5.75061 8.34983 5.94223 8.06647 5.94223Z" fill="#6A7282"/>
<path d="M13.6499 5.94978C13.6082 5.94978 13.5582 5.94976 13.5166 5.9331C13.1832 5.8581 12.9667 5.52476 13.0333 5.19142L13.8166 1.57478C13.8916 1.23311 14.2249 1.02482 14.5582 1.09149C14.8916 1.15816 15.1082 1.49973 15.0416 1.83306L14.2582 5.44981C14.1999 5.74981 13.9416 5.94978 13.6499 5.94978Z" fill="#6A7282"/>
<path d="M13.0835 10.625H6.41683C6.07517 10.625 5.79183 10.3417 5.79183 10C5.79183 9.65833 6.07517 9.375 6.41683 9.375H13.0835C13.4252 9.375 13.7085 9.65833 13.7085 10C13.7085 10.3417 13.4252 10.625 13.0835 10.625Z" fill="#6A7282"/>
<path d="M12.2502 13.9583H5.5835C5.24183 13.9583 4.9585 13.675 4.9585 13.3333C4.9585 12.9917 5.24183 12.7083 5.5835 12.7083H12.2502C12.5918 12.7083 12.8752 12.9917 12.8752 13.3333C12.8752 13.675 12.5918 13.9583 12.2502 13.9583Z" fill="#6A7282"/>
</g>
</svg>
